<?xml version="1.0" standalone="no"?>
<!DOCTYPE svg PUBLIC "-//W3C//DTD SVG 20010904//EN"
 "http://www.w3.org/TR/2001/REC-SVG-20010904/DTD/svg10.dtd">
<svg version="1.0" xmlns="http://www.w3.org/2000/svg"
 width="915.000000pt" height="915.000000pt" viewBox="0 0 915.000000 915.000000"
 preserveAspectRatio="xMidYMid meet">
<metadata>
Created by potrace 1.14, written by Peter Selinger 2001-2017
</metadata>
<g transform="translate(0.000000,915.000000) scale(0.100000,-0.100000)"
fill="#000000" stroke="none">
<path d="M4490 9147 c-3 -2 -57 -8 -120 -11 -200 -12 -283 -19 -364 -31 -11
-2 -43 -6 -71 -10 -98 -13 -122 -17 -260 -46 -77 -16 -180 -41 -230 -55 -49
-15 -106 -31 -125 -36 -19 -5 -42 -10 -50 -13 -22 -6 -162 -55 -185 -64 -11
-5 -60 -24 -110 -44 -149 -59 -213 -87 -380 -173 -200 -101 -229 -117 -233
-126 -2 -5 -8 -8 -12 -8 -32 0 -431 -275 -562 -387 -25 -21 -58 -49 -75 -63
-91 -75 -172 -150 -308 -285 -139 -139 -189 -193 -255 -271 -14 -16 -38 -45
-55 -65 -16 -19 -43 -52 -60 -73 -16 -21 -35 -44 -40 -50 -6 -6 -22 -27 -35
-46 -13 -19 -27 -37 -30 -40 -3 -3 -20 -25 -36 -50 -17 -25 -56 -81 -86 -125
-66 -96 -188 -299 -188 -313 0 -6 -4 -12 -8 -14 -8 -3 -155 -298 -194 -388
-54 -124 -146 -383 -183 -515 -8 -27 -21 -75 -30 -105 -16 -59 -73 -322 -81
-380 -3 -19 -9 -60 -14 -90 -5 -30 -12 -80 -15 -110 -4 -30 -8 -69 -10 -87 -9
-62 -18 -179 -19 -230 -1 -29 -5 -53 -9 -53 -8 0 -3 -429 6 -520 2 -25 7 -81
11 -125 7 -86 14 -145 21 -185 2 -14 7 -45 10 -70 6 -47 12 -80 19 -117 3 -11
8 -43 12 -70 7 -48 10 -65 19 -106 3 -12 10 -44 16 -72 15 -77 81 -324 106
-395 88 -250 202 -523 265 -635 7 -11 23 -40 36 -65 22 -42 77 -138 105 -185
33 -56 258 -393 274 -410 10 -11 31 -39 47 -63 16 -23 32 -42 37 -42 4 0 10
-8 13 -17 3 -10 18 -32 33 -48 16 -17 57 -64 93 -105 126 -146 396 -406 534
-514 28 -22 53 -43 56 -46 3 -3 23 -19 45 -35 22 -17 42 -33 45 -36 4 -4 177
-124 260 -179 169 -113 450 -265 672 -364 167 -74 476 -182 636 -222 9 -2 62
-15 117 -29 111 -29 107 -28 255 -55 130 -23 162 -28 225 -35 28 -3 64 -8 80
-10 37 -5 147 -14 230 -19 33 -2 67 -7 77 -11 18 -7 393 0 468 8 25 3 79 8
120 11 42 4 84 8 95 10 11 2 45 7 76 10 31 4 66 8 77 11 11 2 37 6 58 9 22 4
84 15 139 26 55 11 111 22 125 24 14 3 26 5 28 7 2 2 4 2 52 13 124 28 439
128 527 167 24 10 49 19 56 19 7 0 17 4 22 8 6 5 37 19 70 32 182 71 611 307
785 433 14 10 50 36 80 57 30 22 60 43 65 47 6 4 37 28 70 53 33 25 62 47 65
50 3 3 36 32 75 65 127 109 139 119 233 210 167 159 290 295 427 469 78 100
247 338 267 376 7 14 16 27 19 30 19 17 125 209 209 380 120 240 177 383 251
624 43 137 56 183 74 266 2 8 9 38 15 65 31 131 62 302 75 411 3 22 7 55 10
74 3 19 7 59 10 88 3 28 7 74 10 101 6 57 18 324 18 391 0 48 -10 259 -18 375
-5 69 -7 88 -21 195 -4 30 -8 65 -10 78 -3 28 -24 160 -30 187 -7 37 -20 100
-23 110 -1 6 -4 21 -7 35 -3 14 -14 62 -25 106 -11 45 -21 88 -23 95 -1 8 -10
41 -20 74 -10 33 -19 67 -21 75 -12 54 -120 344 -187 500 -67 156 -242 480
-348 645 -114 178 -276 392 -414 550 -84 96 -356 371 -420 423 -29 24 -63 53
-77 65 -87 77 -328 256 -448 332 -8 6 -41 27 -73 48 -31 20 -62 37 -67 37 -6
0 -11 4 -11 9 0 5 -8 11 -17 15 -10 3 -49 24 -88 46 -72 42 -351 181 -440 220
-122 53 -379 147 -505 185 -202 61 -519 130 -685 150 -27 3 -61 8 -75 10 -28
5 -156 14 -265 20 -38 2 -115 7 -170 11 -55 3 -102 4 -105 1z"/>
</g>
</svg>
